# xmcd
#
# Track frame offsets:
# 150
# 18333
# 35942
# 51899
# 70985
# 86799
# 100575
# 113736
# 126541
# 144338
# 169098
# 188633
# 203129
# 219170
# 233021
# 250259
# 264849
# 280017
# 293509
# 306778
#
# Disc length: 4302 seconds
#
#
# Revision: 0
# Processed by: cddbd v1.5.2PL0 Copyright (c) Steve Scherf et al.
# Submitted via: FreeRIP 2.96 
#
DISCID=1a10cc14
DTITLE=Renan e Ray Grandes Sucessos - 
DYEAR=1900
DGENRE=
TTITLE0=A Luz de Vela
TTITLE1=Eu e Você
TTITLE2=Foi Ela
TTITLE3=Longe do Teu Olhar
TTITLE4=Minhas Palavras
TTITLE5=Nossa História de Amor
TTITLE6=O Coração Te Chama
TTITLE7=Pra Poder Voltar Aqui
TTITLE8=Que Faço Com Meu Coração
TTITLE9=Seleção de Guarânias
TTITLE10=Sem Teu Amor Não Acostumo
TTITLE11=Solidão Por Perto
TTITLE12=Sonho Que Virou Ternura
TTITLE13=Vida e Saudade
TTITLE14=Vida Pelo Avesso
TTITLE15=Vou Beber de Novo
TTITLE16=Coração Ferido
TTITLE17=Cidade Abelha
TTITLE18=Arrume o Quarto
TTITLE19=Dança Comigo
EXTD=
EXTT0=
EXTT1=
EXTT2=
EXTT3=
EXTT4=
EXTT5=
EXTT6=
EXTT7=
EXTT8=
EXTT9=
EXTT10=
EXTT11=
EXTT12=
EXTT13=
EXTT14=
EXTT15=
EXTT16=
EXTT17=
EXTT18=
EXTT19=
PLAYORDER=
